<svg aria-hidden="true" style="position: absolute; width: 0; height: 0; overflow: hidden;" version="1.1" xmlns="http://www.w3.org/2000/svg" xmlns:xlink="http://www.w3.org/1999/xlink">
<defs>
<symbol id="icon-delete" viewBox="0 0 25 32">
<path fill="#a6abb9" style="fill: var(--color1, #a6abb9)" d="M19.556 10.667v17.778h-14.222v-17.778h14.222zM16.889 0h-8.889l-1.778 1.778h-6.222v3.556h24.889v-3.556h-6.222l-1.778-1.778zM23.111 7.111h-21.333v21.333c0 1.956 1.6 3.556 3.556 3.556h14.222c1.956 0 3.556-1.6 3.556-3.556v-21.333z"></path>
</symbol>
<symbol id="icon-flag" viewBox="0 0 28 32">
<path fill="#a6abb9" style="fill: var(--color1, #a6abb9)" d="M13.854 3.765l0.753 3.765h9.864v11.294h-6.325l-0.753-3.765h-13.628v-11.294h10.089zM16.941 0h-16.941v32h3.765v-13.176h10.541l0.753 3.765h13.176v-18.824h-10.541l-0.753-3.765z"></path>
</symbol>
<symbol id="icon-book" viewBox="0 0 41 32">
<path fill="#a6abb9" style="fill: var(--color1, #a6abb9)" d="M37.647 0.941c-2.089-0.659-4.386-0.941-6.588-0.941-3.671 0-7.624 0.753-10.353 2.824-2.729-2.071-6.682-2.824-10.353-2.824s-7.624 0.753-10.353 2.824v27.576c0 0.471 0.471 0.941 0.941 0.941 0.188 0 0.282-0.094 0.471-0.094 2.541-1.224 6.212-2.071 8.941-2.071 3.671 0 7.624 0.753 10.353 2.824 2.541-1.6 7.153-2.824 10.353-2.824 3.106 0 6.306 0.565 8.941 1.976 0.188 0.094 0.282 0.094 0.471 0.094 0.471 0 0.941-0.471 0.941-0.941v-27.482c-1.129-0.847-2.353-1.412-3.765-1.882zM37.647 26.353c-2.071-0.659-4.329-0.941-6.588-0.941-3.2 0-7.812 1.224-10.353 2.824v-21.647c2.541-1.6 7.153-2.824 10.353-2.824 2.259 0 4.518 0.282 6.588 0.941v21.647z"></path>
<path fill="#a6abb9" style="fill: var(--color1, #a6abb9)" d="M31.059 11.294c1.656 0 3.256 0.169 4.706 0.489v-2.861c-1.487-0.282-3.087-0.452-4.706-0.452-3.2 0-6.099 0.546-8.471 1.562v3.125c2.127-1.205 5.082-1.864 8.471-1.864zM22.588 15.040v3.125c2.127-1.205 5.082-1.864 8.471-1.864 1.656 0 3.256 0.169 4.706 0.489v-2.861c-1.487-0.282-3.087-0.452-4.706-0.452-3.2 0-6.099 0.565-8.471 1.562zM31.059 18.504c-3.2 0-6.099 0.546-8.471 1.562v3.125c2.127-1.205 5.082-1.864 8.471-1.864 1.656 0 3.256 0.169 4.706 0.489v-2.861c-1.487-0.301-3.087-0.452-4.706-0.452z"></path>
</symbol>
<symbol id="icon_home" viewBox="0 0 38 32">
<path fill="#a6abb9" style="fill: var(--color1, #a6abb9)" d="M18.824 5.064l9.412 8.471v14.701h-3.765v-11.294h-11.294v11.294h-3.765v-14.701l9.412-8.471zM18.824 0l-18.824 16.941h5.647v15.059h11.294v-11.294h3.765v11.294h11.294v-15.059h5.647l-18.824-16.941z"></path>
</symbol>
<symbol id="icon-arrow" viewBox="0 0 16 32">
<path fill="#ff6b08" style="fill: var(--color2, #ff6b08)" d="M15.662 15.122l-13.703-14.76c-0.449-0.483-1.176-0.482-1.624 0.003s-0.447 1.27 0.002 1.754l12.887 13.881-12.888 13.881c-0.449 0.484-0.45 1.269-0.002 1.754 0.225 0.243 0.519 0.365 0.813 0.365s0.587-0.121 0.811-0.362l13.703-14.76c0.216-0.232 0.338-0.549 0.338-0.878s-0.122-0.645-0.338-0.878z"></path>
</symbol>
<symbol id="icon-line" viewBox="0 0 27 32">
<path fill="#ff6b08" style="fill: var(--color2, #ff6b08)" d="M22.907 22.883c-0.061-0.304-0.312-0.448-0.493-0.64-1.315-1.387-2.651-2.765-3.971-4.157-0.56-0.589-0.613-1.221-0.168-1.669 0.443-0.448 1.061-0.408 1.608 0.16 2.107 2.187 4.211 4.381 6.307 6.579 0.643 0.675 0.635 1.147-0.013 1.829-2.080 2.181-4.163 4.357-6.253 6.525-0.576 0.597-1.139 0.643-1.608 0.171-0.467-0.475-0.397-1.085 0.16-1.672 1.301-1.371 2.616-2.733 3.92-4.104 0.184-0.192 0.427-0.339 0.499-0.643-0.205-0.211-0.461-0.112-0.688-0.112-6.869-0.008-13.741-0.011-20.619-0.011-1.301 0-1.579-0.293-1.579-1.653v-21.819c-0.005-0.079-0.009-0.172-0.009-0.265 0-0.174 0.011-0.346 0.032-0.515l-0.002 0.020c0.112-0.56 0.453-0.917 1.016-0.907 0.56 0.011 0.893 0.365 0.997 0.931 0.027 0.227 0.029 0.453 0.016 0.683 0 6.867 0.011 13.733-0.011 20.589 0 0.651 0.176 0.8 0.773 0.797 6.453-0.021 12.912-0.013 19.368-0.016 0.248 0.011 0.507 0.099 0.72-0.101z"></path>
</symbol>
<symbol id="icon-checkbox" viewBox="0 0 32 32">
<path fill="none" stroke="#ff6b08" style="stroke: var(--color1, #ff6b08)" stroke-linejoin="miter" stroke-linecap="butt" stroke-miterlimit="4" stroke-width="2.1333" d="M2.133 1.067h27.733c0.589 0 1.067 0.478 1.067 1.067v27.733c0 0.589-0.478 1.067-1.067 1.067h-27.733c-0.589 0-1.067-0.478-1.067-1.067v-27.733c0-0.589 0.478-1.067 1.067-1.067z"></path>
<path fill="#ff6b08" style="fill: var(--color1, #ff6b08)" d="M29.76 11.078l-15.872 14.426c-0.067 0.058-0.155 0.094-0.252 0.094s-0.185-0.036-0.252-0.094l0 0-9.013-8.192c-0.064-0.056-0.104-0.138-0.104-0.229s0.040-0.173 0.104-0.229l0-0 2.191-1.99c0.067-0.059 0.156-0.095 0.253-0.095s0.186 0.036 0.253 0.095l-0-0 6.571 5.973 13.429-12.207c0.067-0.058 0.155-0.094 0.252-0.094s0.185 0.036 0.252 0.094l-0-0 2.191 1.99c0.064 0.056 0.104 0.138 0.104 0.229s-0.040 0.173-0.104 0.229l-0 0z"></path>
</symbol>
<symbol id="icon-checkbox-checked" viewBox="0 0 32 32">
<path fill="none" stroke="#a6abb9" style="stroke: var(--color2, #a6abb9)" stroke-linejoin="miter" stroke-linecap="butt" stroke-miterlimit="4" stroke-width="2.1333" d="M2.133 1.067h27.733c0.589 0 1.067 0.478 1.067 1.067v27.733c0 0.589-0.478 1.067-1.067 1.067h-27.733c-0.589 0-1.067-0.478-1.067-1.067v-27.733c0-0.589 0.478-1.067 1.067-1.067z"></path>
</symbol>
<symbol id="icon-thumb_up-no_color" viewBox="0 0 32 32">
<path fill="#a6abb9" style="fill: var(--color1, #a6abb9)" d="M12 28h12c0.003 0 0.006 0 0.010 0 1.094 0 2.033-0.663 2.437-1.609l0.007-0.017 4.027-9.4c0.118-0.288 0.187-0.623 0.187-0.973v-2.667c0-1.467-1.2-2.667-2.667-2.667h-8.413l1.266-6.093 0.040-0.427c0-0.547-0.227-1.054-0.587-1.414l-1.415-1.4-8.785 8.787c-0.478 0.479-0.773 1.141-0.773 1.871 0 0.003 0 0.006 0 0.009v-0 13.333c0 1.467 1.2 2.667 2.667 2.667zM12 12l5.787-5.787-1.787 7.12h12v2.667l-4 9.333h-12v-13.333zM1.333 12h5.333v16h-5.333v-16z"></path>
</symbol>
<symbol id="icon-thumb_up_orange" viewBox="0 0 32 32">
<path fill="#ff6b08" style="fill: var(--color2, #ff6b08)" d="M12 28h12c0.003 0 0.006 0 0.010 0 1.094 0 2.033-0.663 2.437-1.609l0.007-0.017 4.027-9.4c0.118-0.288 0.187-0.623 0.187-0.973v-2.667c0-1.467-1.2-2.667-2.667-2.667h-8.413l1.266-6.093 0.040-0.427c0-0.547-0.227-1.054-0.587-1.414l-1.415-1.4-8.785 8.787c-0.478 0.479-0.773 1.141-0.773 1.871 0 0.003 0 0.006 0 0.009v-0 13.333c0 1.467 1.2 2.667 2.667 2.667zM12 12l5.787-5.787-1.787 7.12h12v2.667l-4 9.333h-12v-13.333zM1.333 12h5.333v16h-5.333v-16z"></path>
</symbol>
</defs>
</svg>

